<?xml version="1.0" standalone="no"?>
<!DOCTYPE svg PUBLIC "-//W3C//DTD SVG 20010904//EN"
 "http://www.w3.org/TR/2001/REC-SVG-20010904/DTD/svg10.dtd">
<svg version="1.0" xmlns="http://www.w3.org/2000/svg"
 width="494.000000pt" height="493.000000pt" viewBox="0 0 494.000000 493.000000"
 preserveAspectRatio="xMidYMid meet">
<metadata>
Created by potrace 1.16, written by Peter Selinger 2001-2019
</metadata>
<g transform="translate(0.000000,493.000000) scale(0.100000,-0.100000)"
fill="#000000" stroke="none">
<path d="M1044 4911 c-47 -29 -100 -97 -114 -147 -14 -51 -8 -120 15 -165 24
-46 93 -107 134 -119 45 -12 122 -13 154 -1 22 9 44 -10 270 -237 185 -185
250 -256 257 -282 6 -19 10 -83 10 -142 l0 -108 -92 0 c-152 -1 -201 -20 -214
-86 -4 -24 0 -37 18 -58 l23 -27 931 1 c607 0 941 -3 958 -10 43 -16 101 -67
127 -113 24 -41 24 -47 27 -317 2 -231 1 -271 -10 -250 -21 39 -55 50 -157 50
-158 0 -187 -34 -221 -265 -12 -77 -23 -148 -26 -158 -6 -18 3 -19 154 -15
119 2 163 7 176 17 35 29 66 98 75 167 6 47 9 -126 9 -539 -1 -571 0 -608 17
-627 22 -24 72 -26 102 -5 31 22 43 74 43 192 l0 103 308 -1 309 0 34 -52 c44
-65 119 -107 192 -107 96 0 193 73 226 169 38 113 -29 247 -145 291 -68 25
-90 25 -158 -1 -56 -20 -136 -95 -136 -125 0 -12 -56 -14 -315 -14 l-315 0 0
73 0 72 153 -3 c175 -3 202 3 222 52 16 39 12 60 -18 94 -20 21 -27 22 -189
22 l-168 0 0 70 0 70 589 0 588 0 27 26 c36 36 36 86 0 119 l-27 25 -588 0
-589 0 0 70 0 70 168 0 c182 0 181 0 211 57 16 32 -9 90 -45 104 -16 6 -91 9
-181 7 l-153 -3 0 73 0 72 134 0 c73 0 148 5 167 11 59 20 127 80 365 318
l231 231 55 -11 c45 -9 65 -8 111 5 70 20 111 54 144 119 21 43 24 61 21 118
-3 56 -9 75 -38 119 -60 88 -156 124 -257 95 -74 -22 -135 -83 -160 -162 -14
-46 -15 -62 -5 -111 l12 -57 -238 -238 c-130 -131 -246 -244 -257 -250 -11 -7
-77 -14 -153 -17 l-132 -5 0 103 c0 124 -22 201 -81 279 -47 63 -86 94 -164
130 -52 23 -76 28 -177 31 l-118 4 0 309 0 309 23 9 c116 44 164 220 91 337
-55 90 -188 132 -286 91 -117 -49 -179 -193 -129 -302 23 -52 66 -102 102
-121 l29 -15 0 -309 0 -310 -70 0 -70 0 0 165 0 166 -26 24 c-34 32 -75 32
-111 1 l-28 -24 0 -165 0 -166 -73 -3 -72 -3 0 593 c0 579 0 592 -20 612 -13
13 -33 20 -60 20 -27 0 -47 -7 -60 -20 -20 -20 -20 -33 -20 -612 l0 -593 -72
3 -73 3 0 166 0 165 -28 24 c-36 31 -77 31 -111 -1 l-26 -24 0 -166 0 -165
-69 0 -69 0 -4 138 c-5 201 -1 194 -340 531 -207 206 -229 231 -219 249 18 33
13 122 -10 172 -43 95 -101 130 -216 130 -58 0 -86 -5 -109 -19z m155 -157
c38 -32 40 -66 6 -99 -27 -28 -48 -31 -85 -12 -47 24 -42 107 8 126 38 14 37
14 71 -15z m1932 -152 c45 -37 17 -122 -40 -122 -43 0 -71 26 -71 66 0 64 62
95 111 56z m1624 -777 c65 -64 -18 -152 -93 -99 -47 33 -14 124 45 124 13 0
35 -11 48 -25z m-166 -1920 c72 -37 26 -141 -53 -121 -37 9 -62 51 -50 84 8
23 44 51 67 52 4 0 21 -7 36 -15z"/>
<path d="M1267 3452 c-27 -30 -37 -79 -37 -187 l0 -100 -311 2 -310 2 -32 48
c-109 162 -351 123 -415 -66 -39 -112 29 -247 143 -290 69 -26 90 -26 159 0
56 20 136 95 136 125 0 12 56 14 315 14 l315 0 0 -72 0 -73 -153 3 c-175 3
-202 -3 -222 -52 -16 -39 -12 -60 18 -93 20 -22 27 -23 189 -23 l168 0 0 -70
0 -70 -589 0 -588 0 -27 -26 c-56 -56 -85 -54 668 -54 l694 0 4 473 c5 535 7
519 -69 525 -28 2 -44 -2 -56 -16z m-833 -323 c42 -33 31 -86 -23 -108 -57
-24 -119 37 -91 89 23 43 73 51 114 19z"/>
<path d="M1600 3146 c0 -56 36 -102 86 -112 28 -5 33 -10 29 -28 -7 -34 -42
-290 -55 -411 -7 -60 -15 -116 -17 -123 -4 -10 13 -12 78 -10 l84 3 13 110
c14 115 68 513 78 578 l7 37 -152 0 -151 0 0 -44z"/>
<path d="M1974 2881 c-42 -26 -70 -74 -83 -145 -6 -33 -11 -61 -11 -63 0 -2
36 -3 80 -3 l80 0 6 38 c5 33 9 37 35 37 16 0 29 -2 29 -4 0 -2 -5 -32 -11
-65 l-10 -61 -54 3 c-89 6 -160 -45 -180 -130 l-7 -28 191 0 c146 0 191 3 191
13 0 6 9 70 20 141 24 153 25 198 6 235 -21 40 -56 51 -159 51 -73 0 -99 -4
-123 -19z"/>
<path d="M2420 2893 c-60 -22 -110 -118 -110 -212 0 -25 -6 -85 -14 -133 l-13
-88 82 0 81 0 12 89 c7 48 12 104 12 124 0 51 9 67 36 67 16 0 24 -6 24 -17 0
-16 -22 -163 -35 -235 l-4 -28 79 0 c66 0 79 3 84 18 3 9 15 86 27 170 24 168
20 194 -29 232 -21 17 -40 20 -121 19 -53 0 -103 -3 -111 -6z"/>
<path d="M2824 2881 c-42 -26 -69 -95 -84 -217 -14 -110 -11 -136 21 -174 21
-24 25 -25 175 -28 l154 -4 0 37 c0 81 -50 125 -145 125 -49 0 -56 2 -51 18 2
9 8 36 11 60 6 36 10 42 30 42 22 0 23 -3 18 -35 l-6 -35 80 0 81 0 6 31 c10
49 7 126 -5 152 -17 37 -50 47 -157 47 -77 0 -103 -4 -128 -19z"/>
<path d="M1447 2598 c-3 -13 -9 -49 -12 -80 l-7 -58 81 0 81 0 0 31 c0 69 -53
129 -113 129 -17 0 -26 -7 -30 -22z"/>
<path d="M0 2446 c0 -7 12 -25 26 -40 l27 -26 588 0 589 0 0 -70 0 -70 -168 0
c-162 0 -169 -1 -189 -22 -30 -34 -34 -55 -18 -94 20 -49 47 -55 222 -52 l153
3 0 -72 0 -73 -134 0 c-73 0 -148 -5 -167 -11 -59 -20 -127 -79 -365 -318
l-231 -231 -55 11 c-45 9 -65 8 -111 -5 -70 -20 -111 -54 -144 -119 -56 -112
-9 -256 102 -315 103 -53 223 -26 290 67 48 66 61 120 47 190 l-12 56 238 238
c130 131 251 246 267 255 22 11 63 17 153 19 l122 3 0 -105 c0 -139 23 -210
96 -299 43 -52 68 -72 130 -102 72 -36 81 -38 195 -42 l119 -4 0 -309 0 -309
-23 -9 c-117 -45 -164 -218 -91 -336 77 -126 263 -145 363 -37 93 101 94 220
0 326 -18 21 -43 42 -56 47 l-23 9 0 309 0 309 70 4 70 3 0 -166 c0 -152 2
-167 20 -187 44 -46 106 -38 135 18 13 26 16 59 13 183 l-3 152 73 0 72 0 0
-588 c0 -386 4 -595 10 -608 16 -28 124 -28 140 0 6 13 10 222 10 608 l0 588
73 0 72 0 -3 -152 c-3 -124 0 -157 13 -183 29 -56 91 -64 135 -18 18 20 20 35
20 187 l0 166 69 -3 69 -4 4 -136 c5 -200 -1 -191 338 -528 209 -209 231 -234
221 -252 -18 -33 -13 -122 10 -172 44 -98 84 -120 219 -120 l100 0 44 40 c60
55 90 127 83 198 -10 91 -72 171 -156 200 -41 14 -120 16 -154 3 -22 -9 -44
10 -270 237 -185 185 -250 256 -257 282 -6 19 -10 83 -10 142 l0 108 98 0
c125 0 167 12 192 53 26 41 25 60 -2 92 l-23 26 -931 -1 c-610 0 -941 3 -958
10 -43 16 -101 67 -127 113 l-24 42 -3 446 -3 446 -211 6 c-116 4 -429 7 -695
7 -401 0 -483 -2 -483 -14z m278 -1242 c15 -10 22 -25 22 -47 0 -38 -7 -50
-37 -66 -33 -17 -51 -14 -78 14 -65 64 18 152 93 99z m1620 -770 c15 -11 22
-25 22 -50 0 -63 -62 -96 -108 -56 -71 59 10 160 86 106z m1940 -158 c20 -20
18 -75 -4 -96 -35 -34 -61 -34 -94 -1 -37 36 -38 64 -4 98 20 20 31 24 57 19
17 -4 38 -12 45 -20z"/>
<path d="M1495 2400 l-80 -5 -8 -62 c-10 -73 9 -125 54 -148 39 -20 190 -20
229 0 56 29 99 112 100 193 0 21 -4 22 -80 22 l-80 0 0 -35 c0 -33 -2 -35 -34
-35 l-34 0 9 37 c4 21 7 38 6 38 -1 0 -38 -2 -82 -5z"/>
<path d="M2349 2402 l-77 -3 -7 -63 c-10 -102 28 -166 101 -166 25 0 33 5 37
23 11 44 29 185 25 198 -2 11 -21 13 -79 11z"/>
<path d="M3203 2403 l-81 -4 -8 -66 c-5 -50 -3 -73 9 -99 26 -53 63 -66 177
-62 89 3 101 6 126 28 33 31 60 90 69 153 l7 47 -81 0 c-73 0 -81 -2 -81 -19
0 -36 -12 -51 -40 -51 -26 0 -27 1 -20 40 4 22 7 39 6 38 0 -1 -38 -4 -83 -5z"/>
<path d="M1836 2369 c-3 -17 -6 -53 -6 -80 0 -40 5 -55 29 -81 l29 -33 149 -3
149 -3 13 98 c7 54 14 106 17 116 5 15 -3 17 -75 17 l-80 0 -7 -35 c-5 -30
-10 -35 -34 -35 -27 0 -28 2 -23 35 l6 35 -80 0 -80 0 -7 -31z"/>
<path d="M2476 2343 c-3 -32 -17 -147 -32 -256 -14 -109 -24 -200 -22 -202 8
-8 83 15 107 32 56 41 85 153 106 406 l7 77 -80 0 -81 0 -5 -57z"/>
<path d="M2696 2369 c-3 -17 -6 -53 -6 -80 0 -40 5 -55 29 -81 29 -32 31 -33
124 -36 75 -3 103 0 131 13 42 20 81 80 91 140 4 22 9 48 12 58 4 15 -4 17
-75 17 -84 0 -92 -5 -92 -51 0 -15 -7 -19 -31 -19 -30 0 -31 1 -25 35 l7 35
-79 0 -79 0 -7 -31z"/>
</g>
</svg>
